<?xml version="1.0" encoding="UTF-8"?>
<!DOCTYPE svg PUBLIC "-//W3C//DTD SVG 1.1//EN" "http://www.w3.org/Graphics/SVG/1.1/DTD/svg11.dtd">
<svg xmlns="http://www.w3.org/2000/svg" version="1.1" width="512px" height="512px" style="shape-rendering:geometricPrecision; text-rendering:geometricPrecision; image-rendering:optimizeQuality; fill-rule:evenodd; clip-rule:evenodd" xmlns:xlink="http://www.w3.org/1999/xlink">
<g><path style="opacity:1" fill="#fefefe" d="M -0.5,-0.5 C 170.167,-0.5 340.833,-0.5 511.5,-0.5C 511.5,170.167 511.5,340.833 511.5,511.5C 340.833,511.5 170.167,511.5 -0.5,511.5C -0.5,340.833 -0.5,170.167 -0.5,-0.5 Z"/></g>
<g><path style="opacity:1" fill="#f5f5f5" d="M 439.5,298.5 C 436.482,298.665 433.482,298.498 430.5,298C 426.312,295.938 421.979,294.271 417.5,293C 401.451,292.306 385.617,292.806 370,294.5C 365.469,294.281 360.969,293.781 356.5,293C 355.524,290.853 355.691,288.686 357,286.5C 362.859,280.761 365.693,273.761 365.5,265.5C 366.511,263.598 366.678,261.598 366,259.5C 356.911,243.927 348.077,228.261 339.5,212.5C 340.101,207.382 341.934,202.715 345,198.5C 355.912,183.676 366.579,168.676 377,153.5C 379.992,148.189 381.825,142.522 382.5,136.5C 385.372,132.126 388.039,127.626 390.5,123C 388.875,116.616 384.875,114.449 378.5,116.5C 366.976,112.972 356.643,115.138 347.5,123C 337.869,131.81 327.869,140.143 317.5,148C 315.246,149.15 312.913,149.484 310.5,149C 306.969,146.129 304.136,142.629 302,138.5C 292.536,120.241 282.536,102.241 272,84.5C 270.264,81.2608 267.764,78.9274 264.5,77.5C 261.979,73.6457 259.312,69.8124 256.5,66C 253.073,64.8343 250.407,65.6676 248.5,68.5C 236.702,67.3159 227.536,71.6493 221,81.5C 189.065,135.775 158.398,190.775 129,246.5C 123.39,257.382 123.557,268.049 129.5,278.5C 132.714,281.876 136.381,284.71 140.5,287C 142.557,288.719 144.224,290.719 145.5,293C 139.867,298.964 133.867,304.631 127.5,310C 124.445,310.634 121.445,310.468 118.5,309.5C 117.679,305.873 116.346,302.54 114.5,299.5C 105.542,295.58 96.2091,294.746 86.5,297C 79.0311,300.137 73.5311,305.304 70,312.5C 61.2672,328.956 55.1006,346.29 51.5,364.5C 52.6289,372.547 53.9622,380.547 55.5,388.5C 54.6438,395.591 53.3105,402.591 51.5,409.5C 52.9904,425.82 61.9904,433.987 78.5,434C 95.8261,435.537 113.159,435.704 130.5,434.5C 170.045,436.676 209.545,436.01 249,432.5C 261.83,433.307 274.663,433.473 287.5,433C 295.459,431.764 303.459,430.931 311.5,430.5C 323.943,432.422 336.443,433.756 349,434.5C 370.485,434.23 391.985,434.063 413.5,434C 424.99,431.346 431.323,424.179 432.5,412.5C 433.984,409.416 433.818,406.416 432,403.5C 428.628,400.731 424.795,398.898 420.5,398C 419.62,396.644 419.286,395.144 419.5,393.5C 422.948,393.108 426.114,393.775 429,395.5C 430.95,395.293 432.116,394.293 432.5,392.5C 439.283,404.15 439.783,416.15 434,428.5C 428.312,435.927 420.812,440.094 411.5,441C 397.985,441.201 384.485,440.701 371,439.5C 363.344,440.299 355.678,440.966 348,441.5C 335.679,440.094 323.345,438.761 311,437.5C 272.322,438.834 233.656,440.5 195,442.5C 153.215,440.684 111.382,439.851 69.5,440C 53.7538,436.422 45.4205,426.589 44.5,410.5C 45.434,402.598 46.7673,394.764 48.5,387C 47.1735,380.723 46.1735,374.39 45.5,368C 49.3653,346.386 56.532,325.886 67,306.5C 76.1096,293.347 88.6096,288.181 104.5,291C 109.521,292.104 114.521,293.271 119.5,294.5C 123.226,294.202 124.393,292.202 123,288.5C 114.26,274.751 113.26,260.417 120,245.5C 149.732,191.038 179.732,136.704 210,82.5C 214.456,76.3751 219.289,70.5417 224.5,65C 240.426,55.1405 254.926,56.9739 268,70.5C 281.163,91.0001 293.496,112 305,133.5C 306.812,136.28 308.979,138.78 311.5,141C 313.833,141.667 316.167,141.667 318.5,141C 326.796,134.373 334.796,127.373 342.5,120C 350.588,113.123 359.921,109.289 370.5,108.5C 385.785,109.785 394.119,118.119 395.5,133.5C 395.192,139.349 394.025,145.016 392,150.5C 381.778,166.72 370.778,182.387 359,197.5C 356.731,201.038 354.731,204.705 353,208.5C 352.333,212.167 352.333,215.833 353,219.5C 360.775,232.093 366.775,245.093 371,258.5C 371.549,266.912 371.216,275.246 370,283.5C 370.5,285.333 371.667,286.5 373.5,287C 382.836,287.402 392.169,287.235 401.5,286.5C 411.93,286.156 421.93,287.989 431.5,292C 434.355,294.031 437.022,296.197 439.5,298.5 Z"/></g>
<g><path style="opacity:1" fill="#08344c" d="M 264.5,77.5 C 278.689,103.375 293.023,129.209 307.5,155C 307.257,155.902 306.923,156.735 306.5,157.5C 303.573,158.757 301.239,160.757 299.5,163.5C 294.446,166.374 289.78,169.874 285.5,174C 284.423,174.47 283.423,174.303 282.5,173.5C 281.5,171.5 280.5,169.5 279.5,167.5C 271.503,152.836 263.003,138.502 254,124.5C 253.228,124.645 252.561,124.978 252,125.5C 248.488,131.86 244.988,138.194 241.5,144.5C 240.559,146.05 239.893,147.716 239.5,149.5C 223.613,176.588 208.28,204.088 193.5,232C 193.645,232.772 193.978,233.439 194.5,234C 204.494,234.5 214.494,234.666 224.5,234.5C 225.239,234.369 225.906,234.536 226.5,235C 227.977,236.812 229.31,238.645 230.5,240.5C 232.848,244.535 235.182,248.535 237.5,252.5C 239.034,255.735 240.701,258.901 242.5,262C 240.881,265.966 237.881,267.466 233.5,266.5C 231.167,266.5 228.833,266.5 226.5,266.5C 224.833,266.5 223.167,266.5 221.5,266.5C 219.167,266.5 216.833,266.5 214.5,266.5C 192.167,266.5 169.833,266.5 147.5,266.5C 144.728,266.405 142.728,265.071 141.5,262.5C 142.859,259.486 144.192,256.486 145.5,253.5C 174.818,200.868 204.151,148.202 233.5,95.5C 235.18,92.1401 236.847,88.8068 238.5,85.5C 239.82,83.5368 241.154,81.5368 242.5,79.5C 243.441,77.9505 244.107,76.2838 244.5,74.5C 246.192,72.7952 247.525,70.7952 248.5,68.5C 250.407,65.6676 253.073,64.8343 256.5,66C 259.312,69.8124 261.979,73.6457 264.5,77.5 Z"/></g>
<g><path style="opacity:1" fill="#e6e6e6" d="M 248.5,68.5 C 247.525,70.7952 246.192,72.7952 244.5,74.5C 233.903,75.7193 226.07,81.0526 221,90.5C 192.746,140.672 164.746,191.005 137,241.5C 123.881,268.922 132.547,283.255 163,284.5C 180.79,283.889 198.623,283.055 216.5,282C 224.59,279.407 230.256,274.24 233.5,266.5C 237.881,267.466 240.881,265.966 242.5,262C 240.701,258.901 239.034,255.735 237.5,252.5C 237.369,251.761 237.536,251.094 238,250.5C 245.045,260.22 253.878,267.72 264.5,273C 269.589,273.826 274.589,273.492 279.5,272C 284.008,269.247 288.341,266.247 292.5,263C 299.05,259.175 305.05,259.842 310.5,265C 319.961,277.379 331.961,281.045 346.5,276C 349.853,273.495 352.186,270.329 353.5,266.5C 356.5,266.5 359.5,266.5 362.5,266.5C 359.054,280.611 350.054,287.611 335.5,287.5C 330.661,287.624 325.995,286.79 321.5,285C 316.211,281.38 311.211,277.38 306.5,273C 304.487,271.743 302.321,270.909 300,270.5C 292.325,273.921 284.825,277.754 277.5,282C 272.079,282.839 266.746,282.506 261.5,281C 255.914,277.375 249.914,274.541 243.5,272.5C 235.903,277.096 229.569,283.096 224.5,290.5C 224.709,291.086 225.043,291.586 225.5,292C 234.289,294.526 242.956,297.026 251.5,299.5C 240.5,299.5 229.5,299.5 218.5,299.5C 217.676,303.312 217.176,307.312 217,311.5C 213.587,313.465 210.087,315.131 206.5,316.5C 202.125,308.96 195.791,303.793 187.5,301C 174.894,299.58 162.228,299.08 149.5,299.5C 148.839,300.718 148.172,302.051 147.5,303.5C 139.308,308.192 132.975,314.692 128.5,323C 127.207,323.49 125.873,323.657 124.5,323.5C 122.5,318.833 120.5,314.167 118.5,309.5C 121.445,310.468 124.445,310.634 127.5,310C 133.867,304.631 139.867,298.964 145.5,293C 144.224,290.719 142.557,288.719 140.5,287C 136.381,284.71 132.714,281.876 129.5,278.5C 123.557,268.049 123.39,257.382 129,246.5C 158.398,190.775 189.065,135.775 221,81.5C 227.536,71.6493 236.702,67.3159 248.5,68.5 Z"/></g>
<g><path style="opacity:1" fill="#d9d9d9" d="M 244.5,74.5 C 244.107,76.2838 243.441,77.9505 242.5,79.5C 238.895,79.7986 235.561,80.9653 232.5,83C 227.565,87.9325 223.399,93.4325 220,99.5C 191.825,149.846 164.159,200.513 137,251.5C 132.383,267.888 138.55,277.054 155.5,279C 174.534,279.906 193.534,279.573 212.5,278C 219.469,276.856 224.136,273.022 226.5,266.5C 228.833,266.5 231.167,266.5 233.5,266.5C 230.256,274.24 224.59,279.407 216.5,282C 198.623,283.055 180.79,283.889 163,284.5C 132.547,283.255 123.881,268.922 137,241.5C 164.746,191.005 192.746,140.672 221,90.5C 226.07,81.0526 233.903,75.7193 244.5,74.5 Z"/></g>
<g><path style="opacity:1" fill="#ebecec" d="M 264.5,77.5 C 267.764,78.9274 270.264,81.2608 272,84.5C 282.536,102.241 292.536,120.241 302,138.5C 304.136,142.629 306.969,146.129 310.5,149C 312.913,149.484 315.246,149.15 317.5,148C 327.869,140.143 337.869,131.81 347.5,123C 356.643,115.138 366.976,112.972 378.5,116.5C 376.833,118.833 374.833,120.833 372.5,122.5C 364.841,121.775 357.841,123.608 351.5,128C 341.5,136.667 331.5,145.333 321.5,154C 318.002,156.499 314.168,158.332 310,159.5C 308.541,159.192 307.374,158.525 306.5,157.5C 306.923,156.735 307.257,155.902 307.5,155C 293.023,129.209 278.689,103.375 264.5,77.5 Z"/></g>
<g><path style="opacity:1" fill="#cccccd" d="M 242.5,79.5 C 241.154,81.5368 239.82,83.5368 238.5,85.5C 235.628,86.5256 233.128,88.1923 231,90.5C 228.578,94.3438 225.911,98.0105 223,101.5C 196.348,150.135 169.681,198.802 143,247.5C 135.883,262.432 140.383,271.598 156.5,275C 172.539,275.467 188.372,275.634 204,275.5C 208.604,274.41 213.104,272.91 217.5,271C 219.041,269.629 220.375,268.129 221.5,266.5C 223.167,266.5 224.833,266.5 226.5,266.5C 224.136,273.022 219.469,276.856 212.5,278C 193.534,279.573 174.534,279.906 155.5,279C 138.55,277.054 132.383,267.888 137,251.5C 164.159,200.513 191.825,149.846 220,99.5C 223.399,93.4325 227.565,87.9325 232.5,83C 235.561,80.9653 238.895,79.7986 242.5,79.5 Z"/></g>
<g><path style="opacity:1" fill="#c1c1c1" d="M 238.5,85.5 C 236.847,88.8068 235.18,92.1401 233.5,95.5C 231.983,95.5106 230.816,96.1772 230,97.5C 202.934,146.63 175.601,195.63 148,244.5C 146.57,247.353 145.737,250.353 145.5,253.5C 144.192,256.486 142.859,259.486 141.5,262.5C 142.728,265.071 144.728,266.405 147.5,266.5C 149.89,269.028 152.89,270.528 156.5,271C 172.492,272.905 188.492,272.905 204.5,271C 208.27,270.278 211.603,268.778 214.5,266.5C 216.833,266.5 219.167,266.5 221.5,266.5C 220.375,268.129 219.041,269.629 217.5,271C 213.104,272.91 208.604,274.41 204,275.5C 188.372,275.634 172.539,275.467 156.5,275C 140.383,271.598 135.883,262.432 143,247.5C 169.681,198.802 196.348,150.135 223,101.5C 225.911,98.0105 228.578,94.3438 231,90.5C 233.128,88.1923 235.628,86.5256 238.5,85.5 Z"/></g>
<g><path style="opacity:1" fill="#dfdfdf" d="M 372.5,122.5 C 369.874,124.823 367.207,127.157 364.5,129.5C 360.219,130.136 356.219,131.636 352.5,134C 340.124,144.712 327.457,155.045 314.5,165C 310.613,168.03 306.28,169.03 301.5,168C 300.418,166.67 299.751,165.17 299.5,163.5C 301.239,160.757 303.573,158.757 306.5,157.5C 307.374,158.525 308.541,159.192 310,159.5C 314.168,158.332 318.002,156.499 321.5,154C 331.5,145.333 341.5,136.667 351.5,128C 357.841,123.608 364.841,121.775 372.5,122.5 Z"/></g>
<g><path style="opacity:1" fill="#e1e1e1" d="M 382.5,136.5 C 381.825,142.522 379.992,148.189 377,153.5C 366.579,168.676 355.912,183.676 345,198.5C 341.934,202.715 340.101,207.382 339.5,212.5C 338.533,211.194 337.199,210.527 335.5,210.5C 334.903,210.265 334.57,209.765 334.5,209C 335.472,206.889 336.305,204.722 337,202.5C 346.754,187.992 356.754,173.659 367,159.5C 367.483,158.552 367.649,157.552 367.5,156.5C 372.016,149.467 377.016,142.8 382.5,136.5 Z"/></g>
<g><path style="opacity:1" fill="#aeaeae" d="M 279.5,167.5 C 275.781,167.998 272.447,167.164 269.5,165C 264.065,158.809 258.398,152.809 252.5,147C 249.077,145.096 245.41,144.263 241.5,144.5C 244.988,138.194 248.488,131.86 252,125.5C 252.561,124.978 253.228,124.645 254,124.5C 263.003,138.502 271.503,152.836 279.5,167.5 Z"/></g>
<g><path style="opacity:1" fill="#c5c6c6" d="M 347.5,145.5 C 325.062,166.1 302.729,186.933 280.5,208C 276.271,211.525 272.604,211.025 269.5,206.5C 272.928,206.453 275.928,205.287 278.5,203C 284.542,196.627 290.208,189.96 295.5,183C 312.967,172.204 329.301,159.87 344.5,146C 345.448,145.517 346.448,145.351 347.5,145.5 Z"/></g>
<g><path style="opacity:1" fill="#c2c2c2" d="M 241.5,144.5 C 245.41,144.263 249.077,145.096 252.5,147C 258.398,152.809 264.065,158.809 269.5,165C 272.447,167.164 275.781,167.998 279.5,167.5C 280.5,169.5 281.5,171.5 282.5,173.5C 277.452,173.873 272.785,172.706 268.5,170C 262.5,163.667 256.5,157.333 250.5,151C 246.94,149.763 243.273,149.263 239.5,149.5C 239.893,147.716 240.559,146.05 241.5,144.5 Z"/></g>
<g><path style="opacity:1" fill="#10727a" d="M 382.5,136.5 C 377.016,142.8 372.016,149.467 367.5,156.5C 354.402,172.598 342.069,189.265 330.5,206.5C 320.105,218.956 310.438,231.956 301.5,245.5C 296.031,251.811 290.698,258.311 285.5,265C 281.132,267.216 277.132,266.716 273.5,263.5C 262.888,245.563 251.888,227.896 240.5,210.5C 237.844,205.19 234.677,200.19 231,195.5C 229.798,193.323 229.298,190.989 229.5,188.5C 231.159,185.167 233.825,183.5 237.5,183.5C 238.552,183.351 239.552,183.517 240.5,184C 246.377,188.717 252.377,193.217 258.5,197.5C 260.607,199.727 262.94,201.727 265.5,203.5C 266.795,204.488 268.128,205.488 269.5,206.5C 272.604,211.025 276.271,211.525 280.5,208C 302.729,186.933 325.062,166.1 347.5,145.5C 353.797,140.871 359.463,135.538 364.5,129.5C 367.207,127.157 369.874,124.823 372.5,122.5C 374.833,120.833 376.833,118.833 378.5,116.5C 384.875,114.449 388.875,116.616 390.5,123C 388.039,127.626 385.372,132.126 382.5,136.5 Z"/></g>
<g><path style="opacity:1" fill="#d0d1d1" d="M 367.5,156.5 C 367.649,157.552 367.483,158.552 367,159.5C 356.754,173.659 346.754,187.992 337,202.5C 336.305,204.722 335.472,206.889 334.5,209C 334.57,209.765 334.903,210.265 335.5,210.5C 334.079,213.009 332.412,215.343 330.5,217.5C 329.351,217.209 328.684,216.376 328.5,215C 329.275,212.178 329.942,209.344 330.5,206.5C 342.069,189.265 354.402,172.598 367.5,156.5 Z"/></g>
<g><path style="opacity:1" fill="#aeb0b0" d="M 233.5,95.5 C 204.151,148.202 174.818,200.868 145.5,253.5C 145.737,250.353 146.57,247.353 148,244.5C 175.601,195.63 202.934,146.63 230,97.5C 230.816,96.1772 231.983,95.5106 233.5,95.5 Z"/></g>
<g><path style="opacity:1" fill="#cecece" d="M 364.5,129.5 C 359.463,135.538 353.797,140.871 347.5,145.5C 346.448,145.351 345.448,145.517 344.5,146C 329.301,159.87 312.967,172.204 295.5,183C 290.208,189.96 284.542,196.627 278.5,203C 275.928,205.287 272.928,206.453 269.5,206.5C 268.128,205.488 266.795,204.488 265.5,203.5C 273.147,202.033 278.647,197.7 282,190.5C 282.667,188.833 282.667,187.167 282,185.5C 276.785,182.808 271.618,179.975 266.5,177C 260.828,171.661 255.495,165.995 250.5,160C 247.119,157.755 243.452,157.088 239.5,158C 229.265,166.221 225.931,176.388 229.5,188.5C 229.298,190.989 229.798,193.323 231,195.5C 234.677,200.19 237.844,205.19 240.5,210.5C 237.78,213.678 236.946,217.345 238,221.5C 242.997,235.002 250.164,247.168 259.5,258C 263.426,261.651 268.093,263.485 273.5,263.5C 277.132,266.716 281.132,267.216 285.5,265C 290.698,258.311 296.031,251.811 301.5,245.5C 303.927,245.523 306.26,246.023 308.5,247C 313.523,253.021 318.856,258.688 324.5,264C 327.87,266.078 331.537,266.911 335.5,266.5C 341.5,266.5 347.5,266.5 353.5,266.5C 352.186,270.329 349.853,273.495 346.5,276C 331.961,281.045 319.961,277.379 310.5,265C 305.05,259.842 299.05,259.175 292.5,263C 288.341,266.247 284.008,269.247 279.5,272C 274.589,273.492 269.589,273.826 264.5,273C 253.878,267.72 245.045,260.22 238,250.5C 237.536,251.094 237.369,251.761 237.5,252.5C 235.182,248.535 232.848,244.535 230.5,240.5C 231.097,240.265 231.43,239.765 231.5,239C 228.635,229.265 223.969,220.598 217.5,213C 216.391,212.362 215.225,211.862 214,211.5C 204.089,215.647 201.089,222.647 205,232.5C 211.599,233.15 218.099,233.816 224.5,234.5C 214.494,234.666 204.494,234.5 194.5,234C 193.978,233.439 193.645,232.772 193.5,232C 208.28,204.088 223.613,176.588 239.5,149.5C 243.273,149.263 246.94,149.763 250.5,151C 256.5,157.333 262.5,163.667 268.5,170C 272.785,172.706 277.452,173.873 282.5,173.5C 283.423,174.303 284.423,174.47 285.5,174C 289.78,169.874 294.446,166.374 299.5,163.5C 299.751,165.17 300.418,166.67 301.5,168C 306.28,169.03 310.613,168.03 314.5,165C 327.457,155.045 340.124,144.712 352.5,134C 356.219,131.636 360.219,130.136 364.5,129.5 Z"/></g>
<g><path style="opacity:1" fill="#ededed" d="M 258.5,197.5 C 252.377,193.217 246.377,188.717 240.5,184C 239.552,183.517 238.552,183.351 237.5,183.5C 235.451,182.727 234.117,181.227 233.5,179C 233.847,172.969 236.514,168.303 241.5,165C 244.419,164.448 247.086,165.115 249.5,167C 256.024,174.522 262.857,181.689 270,188.5C 270.782,191.257 270.282,193.757 268.5,196C 265.312,197.316 261.978,197.816 258.5,197.5 Z"/></g>
<g><path style="opacity:1" fill="#e1e1e1" d="M 265.5,203.5 C 262.94,201.727 260.607,199.727 258.5,197.5C 261.978,197.816 265.312,197.316 268.5,196C 270.282,193.757 270.782,191.257 270,188.5C 262.857,181.689 256.024,174.522 249.5,167C 247.086,165.115 244.419,164.448 241.5,165C 236.514,168.303 233.847,172.969 233.5,179C 234.117,181.227 235.451,182.727 237.5,183.5C 233.825,183.5 231.159,185.167 229.5,188.5C 225.931,176.388 229.265,166.221 239.5,158C 243.452,157.088 247.119,157.755 250.5,160C 255.495,165.995 260.828,171.661 266.5,177C 271.618,179.975 276.785,182.808 282,185.5C 282.667,187.167 282.667,188.833 282,190.5C 278.647,197.7 273.147,202.033 265.5,203.5 Z"/></g>
<g><path style="opacity:1" fill="#0a344c" d="M 335.5,210.5 C 337.199,210.527 338.533,211.194 339.5,212.5C 348.077,228.261 356.911,243.927 366,259.5C 366.678,261.598 366.511,263.598 365.5,265.5C 364.609,266.11 363.609,266.443 362.5,266.5C 359.5,266.5 356.5,266.5 353.5,266.5C 347.5,266.5 341.5,266.5 335.5,266.5C 333.193,265.023 331.36,263.023 330,260.5C 325.561,252.621 321.394,244.621 317.5,236.5C 321.433,229.899 325.767,223.565 330.5,217.5C 332.412,215.343 334.079,213.009 335.5,210.5 Z"/></g>
<g><path style="opacity:1" fill="#e1e1e1" d="M 230.5,240.5 C 229.31,238.645 227.977,236.812 226.5,235C 225.906,234.536 225.239,234.369 224.5,234.5C 218.099,233.816 211.599,233.15 205,232.5C 201.089,222.647 204.089,215.647 214,211.5C 215.225,211.862 216.391,212.362 217.5,213C 223.969,220.598 228.635,229.265 231.5,239C 231.43,239.765 231.097,240.265 230.5,240.5 Z"/></g>
<g><path style="opacity:1" fill="#aeafaf" d="M 240.5,210.5 C 251.888,227.896 262.888,245.563 273.5,263.5C 268.093,263.485 263.426,261.651 259.5,258C 250.164,247.168 242.997,235.002 238,221.5C 236.946,217.345 237.78,213.678 240.5,210.5 Z"/></g>
<g><path style="opacity:1" fill="#b1b2b2" d="M 330.5,206.5 C 329.942,209.344 329.275,212.178 328.5,215C 328.684,216.376 329.351,217.209 330.5,217.5C 325.767,223.565 321.433,229.899 317.5,236.5C 321.394,244.621 325.561,252.621 330,260.5C 331.36,263.023 333.193,265.023 335.5,266.5C 331.537,266.911 327.87,266.078 324.5,264C 318.856,258.688 313.523,253.021 308.5,247C 306.26,246.023 303.927,245.523 301.5,245.5C 310.438,231.956 320.105,218.956 330.5,206.5 Z"/></g>
<g><path style="opacity:1" fill="#b3b3b3" d="M 147.5,266.5 C 169.833,266.5 192.167,266.5 214.5,266.5C 211.603,268.778 208.27,270.278 204.5,271C 188.492,272.905 172.492,272.905 156.5,271C 152.89,270.528 149.89,269.028 147.5,266.5 Z"/></g>
<g><path style="opacity:1" fill="#ececed" d="M 365.5,265.5 C 365.693,273.761 362.859,280.761 357,286.5C 355.691,288.686 355.524,290.853 356.5,293C 360.969,293.781 365.469,294.281 370,294.5C 385.617,292.806 401.451,292.306 417.5,293C 421.979,294.271 426.312,295.938 430.5,298C 433.482,298.498 436.482,298.665 439.5,298.5C 440.167,298.5 440.5,298.833 440.5,299.5C 422.167,299.5 403.833,299.5 385.5,299.5C 384.686,301.631 384.186,303.964 384,306.5C 381.978,307.786 379.811,308.786 377.5,309.5C 376.833,306.023 376.166,302.689 375.5,299.5C 370.5,299.5 365.5,299.5 360.5,299.5C 360.5,304.5 360.5,309.5 360.5,314.5C 356.051,315.029 351.718,316.029 347.5,317.5C 342.508,307.833 334.841,301.5 324.5,298.5C 322.123,297.113 319.457,296.279 316.5,296C 310.167,295.333 303.833,295.333 297.5,296C 287.482,298.561 277.649,301.728 268,305.5C 266.56,304.852 265.06,304.519 263.5,304.5C 259.983,301.744 255.983,300.077 251.5,299.5C 242.956,297.026 234.289,294.526 225.5,292C 225.043,291.586 224.709,291.086 224.5,290.5C 229.569,283.096 235.903,277.096 243.5,272.5C 249.914,274.541 255.914,277.375 261.5,281C 266.746,282.506 272.079,282.839 277.5,282C 284.825,277.754 292.325,273.921 300,270.5C 302.321,270.909 304.487,271.743 306.5,273C 311.211,277.38 316.211,281.38 321.5,285C 325.995,286.79 330.661,287.624 335.5,287.5C 350.054,287.611 359.054,280.611 362.5,266.5C 363.609,266.443 364.609,266.11 365.5,265.5 Z"/></g>
<g><path style="opacity:1" fill="#f5f5f5" d="M 297.5,275.5 C 304.73,276.446 309.73,280.279 312.5,287C 311.833,287.667 311.167,288.333 310.5,289C 301.944,291.128 293.278,292.795 284.5,294C 279.814,296.036 275.147,298.036 270.5,300C 268.167,300.667 265.833,300.667 263.5,300C 255.935,296.717 248.268,293.717 240.5,291C 235.672,284.866 237.172,281.032 245,279.5C 251.326,281.287 257.492,283.454 263.5,286C 268.833,286.667 274.167,286.667 279.5,286C 285.727,282.726 291.727,279.226 297.5,275.5 Z"/></g>
<g><path style="opacity:1" fill="#f0f0f0" d="M 114.5,299.5 C 109.167,299.5 103.833,299.5 98.5,299.5C 89.2079,298.873 81.7079,302.206 76,309.5C 67.9315,323.357 61.5982,338.024 57,353.5C 55.6159,359.109 55.2825,364.775 56,370.5C 58.7842,377.067 61.2842,383.734 63.5,390.5C 51.4077,418.01 60.241,430.677 90,428.5C 102.41,430.468 114.91,430.801 127.5,429.5C 166.606,431.967 205.606,430.967 244.5,426.5C 254.872,427.134 265.205,428.134 275.5,429.5C 287.369,428.105 299.202,426.439 311,424.5C 318.886,425.763 326.719,427.263 334.5,429C 361.167,429.667 387.833,429.667 414.5,429C 420.181,426.493 423.848,422.326 425.5,416.5C 428.295,415.937 430.628,414.604 432.5,412.5C 431.323,424.179 424.99,431.346 413.5,434C 391.985,434.063 370.485,434.23 349,434.5C 336.443,433.756 323.943,432.422 311.5,430.5C 303.459,430.931 295.459,431.764 287.5,433C 274.663,433.473 261.83,433.307 249,432.5C 209.545,436.01 170.045,436.676 130.5,434.5C 113.159,435.704 95.8261,435.537 78.5,434C 61.9904,433.987 52.9904,425.82 51.5,409.5C 53.3105,402.591 54.6438,395.591 55.5,388.5C 53.9622,380.547 52.6289,372.547 51.5,364.5C 55.1006,346.29 61.2672,328.956 70,312.5C 73.5311,305.304 79.0311,300.137 86.5,297C 96.2091,294.746 105.542,295.58 114.5,299.5 Z"/></g>
<g><path style="opacity:1" fill="#eaeaea" d="M 98.5,299.5 C 97.8902,300.391 97.5569,301.391 97.5,302.5C 88.0745,302.42 80.9079,306.42 76,314.5C 67.7822,329.821 61.9488,345.988 58.5,363C 61.0568,384.608 71.7235,390.275 90.5,380C 96.2678,378.775 101.601,379.775 106.5,383C 108.607,384.264 109.607,386.097 109.5,388.5C 108.055,390.063 106.389,391.396 104.5,392.5C 102.45,392.961 100.45,393.628 98.5,394.5C 97.8182,393.757 97.1515,393.091 96.5,392.5C 85.9554,384.596 77.2888,386.262 70.5,397.5C 63.9293,402.386 62.096,408.719 65,416.5C 66.1667,417.667 67.3333,418.833 68.5,420C 81.7466,422.436 95.08,424.436 108.5,426C 143.526,428.309 178.526,427.975 213.5,425C 219.435,424.766 225.102,423.433 230.5,421C 234.167,420.833 237.833,420.667 241.5,420.5C 252.84,421.701 264.174,423.034 275.5,424.5C 287.533,423.459 299.366,421.459 311,418.5C 321.665,421.166 332.498,423.333 343.5,425C 359.189,424.115 374.856,424.615 390.5,426.5C 398.232,426.162 405.899,425.328 413.5,424C 417.304,422.786 419.638,420.286 420.5,416.5C 422.167,416.5 423.833,416.5 425.5,416.5C 423.848,422.326 420.181,426.493 414.5,429C 387.833,429.667 361.167,429.667 334.5,429C 326.719,427.263 318.886,425.763 311,424.5C 299.202,426.439 287.369,428.105 275.5,429.5C 265.205,428.134 254.872,427.134 244.5,426.5C 205.606,430.967 166.606,431.967 127.5,429.5C 114.91,430.801 102.41,430.468 90,428.5C 60.241,430.677 51.4077,418.01 63.5,390.5C 61.2842,383.734 58.7842,377.067 56,370.5C 55.2825,364.775 55.6159,359.109 57,353.5C 61.5982,338.024 67.9315,323.357 76,309.5C 81.7079,302.206 89.2079,298.873 98.5,299.5 Z"/></g>
<g><path style="opacity:1" fill="#e1e1e1" d="M 324.5,298.5 C 307.496,295.607 293.83,300.94 283.5,314.5C 279.746,315.541 276.08,316.875 272.5,318.5C 271.818,317.757 271.151,317.091 270.5,316.5C 269.206,311.915 266.873,307.915 263.5,304.5C 265.06,304.519 266.56,304.852 268,305.5C 277.649,301.728 287.482,298.561 297.5,296C 303.833,295.333 310.167,295.333 316.5,296C 319.457,296.279 322.123,297.113 324.5,298.5 Z"/></g>
<g><path style="opacity:1" fill="#0d3347" d="M 324.5,298.5 C 334.841,301.5 342.508,307.833 347.5,317.5C 354.761,335.544 351.094,350.878 336.5,363.5C 331.581,366.475 326.248,368.475 320.5,369.5C 295.586,370.919 281.586,359.252 278.5,334.5C 278.92,327.486 280.587,320.819 283.5,314.5C 293.83,300.94 307.496,295.607 324.5,298.5 Z"/></g>
<g><path style="opacity:1" fill="#0d3347" d="M 98.5,299.5 C 103.833,299.5 109.167,299.5 114.5,299.5C 116.346,302.54 117.679,305.873 118.5,309.5C 120.5,314.167 122.5,318.833 124.5,323.5C 129.768,338.3 135.434,352.967 141.5,367.5C 136.208,368.495 130.875,368.828 125.5,368.5C 124.771,364.314 123.438,360.314 121.5,356.5C 111.522,355.501 101.522,355.168 91.5,355.5C 90.7471,359.677 89.4138,363.677 87.5,367.5C 82.1977,368.663 76.8643,368.829 71.5,368C 79.2531,349.328 86.5865,330.494 93.5,311.5C 94.1098,310.609 94.4431,309.609 94.5,308.5C 95.4861,306.574 96.4861,304.574 97.5,302.5C 97.5569,301.391 97.8902,300.391 98.5,299.5 Z"/></g>
<g><path style="opacity:1" fill="#0a3246" d="M 149.5,299.5 C 162.228,299.08 174.894,299.58 187.5,301C 195.791,303.793 202.125,308.96 206.5,316.5C 211.276,326.879 211.776,337.545 208,348.5C 206.338,351.649 204.505,354.649 202.5,357.5C 197.988,361.928 192.655,365.094 186.5,367C 174.22,368.394 161.886,368.894 149.5,368.5C 149.5,345.5 149.5,322.5 149.5,299.5 Z"/></g>
<g><path style="opacity:1" fill="#0b3246" d="M 218.5,299.5 C 229.5,299.5 240.5,299.5 251.5,299.5C 255.983,300.077 259.983,301.744 263.5,304.5C 266.873,307.915 269.206,311.915 270.5,316.5C 272.855,329.29 268.189,338.457 256.5,344C 260.399,349.656 264.399,355.156 268.5,360.5C 269.172,363.342 270.506,365.842 272.5,368C 266.843,368.499 261.176,368.666 255.5,368.5C 251.61,361.059 247.444,353.726 243,346.5C 239.943,345.549 236.777,345.216 233.5,345.5C 233.5,353.167 233.5,360.833 233.5,368.5C 228.5,368.5 223.5,368.5 218.5,368.5C 218.5,345.5 218.5,322.5 218.5,299.5 Z"/></g>
<g><path style="opacity:1" fill="#123549" d="M 375.5,299.5 C 375.5,322.5 375.5,345.5 375.5,368.5C 370.5,368.5 365.5,368.5 360.5,368.5C 360.5,365.833 360.5,363.167 360.5,360.5C 360.5,345.167 360.5,329.833 360.5,314.5C 360.5,309.5 360.5,304.5 360.5,299.5C 365.5,299.5 370.5,299.5 375.5,299.5 Z"/></g>
<g><path style="opacity:1" fill="#0c3145" d="M 385.5,299.5 C 403.833,299.5 422.167,299.5 440.5,299.5C 440.5,304.167 440.5,308.833 440.5,313.5C 433.833,313.5 427.167,313.5 420.5,313.5C 420.5,331.833 420.5,350.167 420.5,368.5C 415.5,368.5 410.5,368.5 405.5,368.5C 405.5,350.167 405.5,331.833 405.5,313.5C 398.833,313.5 392.167,313.5 385.5,313.5C 385.5,308.833 385.5,304.167 385.5,299.5 Z"/></g>
<g><path style="opacity:1" fill="#c2c3c3" d="M 163.5,312.5 C 175.145,310.067 184.978,313.067 193,321.5C 198.58,332.442 197.08,342.275 188.5,351C 180.692,355.098 172.358,356.598 163.5,355.5C 163.5,341.167 163.5,326.833 163.5,312.5 Z"/></g>
<g><path style="opacity:1" fill="#c7c8c8" d="M 319.5,355.5 C 324.961,342.858 322.628,332.024 312.5,323C 307.054,319.762 301.72,319.928 296.5,323.5C 302.221,313.15 310.888,309.65 322.5,313C 336.411,320.738 339.911,331.905 333,346.5C 329.666,351.348 325.166,354.348 319.5,355.5 Z"/></g>
<g><path style="opacity:1" fill="#c6c6c6" d="M 385.5,313.5 C 392.167,313.5 398.833,313.5 405.5,313.5C 405.5,331.833 405.5,350.167 405.5,368.5C 404.834,364.979 404.167,361.313 403.5,357.5C 401.405,358.229 399.572,357.563 398,355.5C 395.985,344.101 391.651,333.767 385,324.5C 382.879,320.654 383.045,316.988 385.5,313.5 Z"/></g>
<g><path style="opacity:1" fill="#efefef" d="M 440.5,299.5 C 445.063,306.045 446.563,313.378 445,321.5C 441.333,328.833 437.667,336.167 434,343.5C 429.786,358.416 428.619,373.75 430.5,389.5C 426.269,387.515 421.936,387.182 417.5,388.5C 415.815,387.816 414.815,386.483 414.5,384.5C 416.376,379.539 418.043,374.539 419.5,369.5C 420.167,369.5 420.5,369.167 420.5,368.5C 420.5,350.167 420.5,331.833 420.5,313.5C 427.167,313.5 433.833,313.5 440.5,313.5C 440.5,308.833 440.5,304.167 440.5,299.5 Z"/></g>
<g><path style="opacity:1" fill="#c2c2c2" d="M 233.5,312.5 C 238.844,312.334 244.177,312.501 249.5,313C 256.498,316.182 258.331,321.349 255,328.5C 254.097,329.701 252.931,330.535 251.5,331C 245.593,332.361 239.593,332.861 233.5,332.5C 233.5,325.833 233.5,319.167 233.5,312.5 Z"/></g>
<g><path style="opacity:1" fill="#d6d6d6" d="M 319.5,355.5 C 303.754,356.922 295.087,349.755 293.5,334C 293.695,330.14 294.695,326.64 296.5,323.5C 301.72,319.928 307.054,319.762 312.5,323C 322.628,332.024 324.961,342.858 319.5,355.5 Z"/></g>
<g><path style="opacity:1" fill="#c5c5c5" d="M 360.5,314.5 C 360.5,329.833 360.5,345.167 360.5,360.5C 358.367,362.774 355.701,364.108 352.5,364.5C 347.209,363.598 341.876,363.265 336.5,363.5C 351.094,350.878 354.761,335.544 347.5,317.5C 351.718,316.029 356.051,315.029 360.5,314.5 Z"/></g>
<g><path style="opacity:1" fill="#cdcece" d="M 375.5,299.5 C 376.166,302.689 376.833,306.023 377.5,309.5C 379.811,308.786 381.978,307.786 384,306.5C 384.186,303.964 384.686,301.631 385.5,299.5C 385.5,304.167 385.5,308.833 385.5,313.5C 383.045,316.988 382.879,320.654 385,324.5C 391.651,333.767 395.985,344.101 398,355.5C 399.572,357.563 401.405,358.229 403.5,357.5C 404.167,361.313 404.834,364.979 405.5,368.5C 410.5,368.5 415.5,368.5 420.5,368.5C 420.5,369.167 420.167,369.5 419.5,369.5C 413.442,369.012 407.609,369.679 402,371.5C 397.118,370.288 393.785,367.288 392,362.5C 390.121,355.895 388.454,349.228 387,342.5C 385.705,336.692 382.205,333.692 376.5,333.5C 376.828,345.345 376.495,357.012 375.5,368.5C 375.5,345.5 375.5,322.5 375.5,299.5 Z"/></g>
<g><path style="opacity:1" fill="#d6d6d6" d="M 167.5,325.5 C 173.717,325.538 177.884,328.538 180,334.5C 181.802,341.049 180.969,347.382 177.5,353.5C 173.217,354.492 168.884,354.826 164.5,354.5C 164.5,345.167 164.5,335.833 164.5,326.5C 165.791,326.737 166.791,326.404 167.5,325.5 Z"/></g>
<g><path style="opacity:1" fill="#b2b3b3" d="M 218.5,299.5 C 218.5,322.5 218.5,345.5 218.5,368.5C 217.532,366.393 217.198,364.059 217.5,361.5C 212.278,360.981 207.278,359.648 202.5,357.5C 204.505,354.649 206.338,351.649 208,348.5C 211.776,337.545 211.276,326.879 206.5,316.5C 210.087,315.131 213.587,313.465 217,311.5C 217.176,307.312 217.676,303.312 218.5,299.5 Z"/></g>
<g><path style="opacity:1" fill="#c5c6c6" d="M 283.5,314.5 C 280.587,320.819 278.92,327.486 278.5,334.5C 281.586,359.252 295.586,370.919 320.5,369.5C 318.115,371.263 315.448,372.763 312.5,374C 301.973,376.073 292.306,374.073 283.5,368C 279,364.833 274.5,361.667 270,358.5C 269.283,359.044 268.783,359.711 268.5,360.5C 264.399,355.156 260.399,349.656 256.5,344C 268.189,338.457 272.855,329.29 270.5,316.5C 271.151,317.091 271.818,317.757 272.5,318.5C 276.08,316.875 279.746,315.541 283.5,314.5 Z"/></g>
<g><path style="opacity:1" fill="#c7c8c8" d="M 149.5,299.5 C 149.5,322.5 149.5,345.5 149.5,368.5C 161.886,368.894 174.22,368.394 186.5,367C 192.655,365.094 197.988,361.928 202.5,357.5C 207.278,359.648 212.278,360.981 217.5,361.5C 217.198,364.059 217.532,366.393 218.5,368.5C 223.5,368.5 228.5,368.5 233.5,368.5C 233.5,360.833 233.5,353.167 233.5,345.5C 236.777,345.216 239.943,345.549 243,346.5C 247.444,353.726 251.61,361.059 255.5,368.5C 251.33,370.11 246.997,371.11 242.5,371.5C 231.849,370.997 221.182,370.831 210.5,371C 206.384,369.91 202.218,369.077 198,368.5C 188.183,370.655 178.683,373.822 169.5,378C 165.54,379.025 161.54,379.859 157.5,380.5C 149.606,379.59 141.939,377.757 134.5,375C 123.309,374.56 112.309,372.893 101.5,370C 92.5,370.333 83.5,370.667 74.5,371C 71.0552,369.612 68.8886,367.112 68,363.5C 67.3762,358.777 67.7095,354.11 69,349.5C 72.784,337.101 78.284,325.601 85.5,315C 87.8175,313.007 90.4842,311.841 93.5,311.5C 86.5865,330.494 79.2531,349.328 71.5,368C 76.8643,368.829 82.1977,368.663 87.5,367.5C 89.4138,363.677 90.7471,359.677 91.5,355.5C 101.522,355.168 111.522,355.501 121.5,356.5C 123.438,360.314 124.771,364.314 125.5,368.5C 130.875,368.828 136.208,368.495 141.5,367.5C 135.434,352.967 129.768,338.3 124.5,323.5C 125.873,323.657 127.207,323.49 128.5,323C 132.975,314.692 139.308,308.192 147.5,303.5C 148.172,302.051 148.839,300.718 149.5,299.5 Z"/></g>
<g><path style="opacity:1" fill="#bbbbbb" d="M 105.5,318.5 C 106.75,318.577 107.583,319.244 108,320.5C 110.609,327.497 113.109,334.497 115.5,341.5C 109.463,341.829 103.463,341.496 97.5,340.5C 100.371,333.22 103.037,325.886 105.5,318.5 Z"/></g>
<g><path style="opacity:1" fill="#d3d4d4" d="M 94.5,308.5 C 94.4431,309.609 94.1098,310.609 93.5,311.5C 90.4842,311.841 87.8175,313.007 85.5,315C 78.284,325.601 72.784,337.101 69,349.5C 67.7095,354.11 67.3762,358.777 68,363.5C 68.8886,367.112 71.0552,369.612 74.5,371C 83.5,370.667 92.5,370.333 101.5,370C 112.309,372.893 123.309,374.56 134.5,375C 141.939,377.757 149.606,379.59 157.5,380.5C 161.54,379.859 165.54,379.025 169.5,378C 178.683,373.822 188.183,370.655 198,368.5C 202.218,369.077 206.384,369.91 210.5,371C 221.182,370.831 231.849,370.997 242.5,371.5C 246.997,371.11 251.33,370.11 255.5,368.5C 261.176,368.666 266.843,368.499 272.5,368C 270.506,365.842 269.172,363.342 268.5,360.5C 268.783,359.711 269.283,359.044 270,358.5C 274.5,361.667 279,364.833 283.5,368C 292.306,374.073 301.973,376.073 312.5,374C 315.448,372.763 318.115,371.263 320.5,369.5C 326.248,368.475 331.581,366.475 336.5,363.5C 341.876,363.265 347.209,363.598 352.5,364.5C 355.701,364.108 358.367,362.774 360.5,360.5C 360.5,363.167 360.5,365.833 360.5,368.5C 365.5,368.5 370.5,368.5 375.5,368.5C 373.052,369.473 370.385,369.806 367.5,369.5C 362.923,370.385 358.423,371.385 354,372.5C 349.762,372.286 345.595,371.619 341.5,370.5C 331.979,372.428 323.312,376.261 315.5,382C 307.818,385.27 300.151,385.27 292.5,382C 285.833,378 279.167,374 272.5,370C 264.918,368.452 257.918,369.785 251.5,374C 248.833,374.167 246.167,374.333 243.5,374.5C 226.131,374.893 208.798,374.393 191.5,373C 183.785,376.131 176.118,379.464 168.5,383C 165.023,383.663 161.523,384.163 158,384.5C 144.667,381.169 131.167,378.669 117.5,377C 112.833,375.667 108.167,374.333 103.5,373C 93.1263,372.849 82.793,373.182 72.5,374C 67.9406,372.073 65.4406,368.573 65,363.5C 64.6833,358.395 65.35,353.395 67,348.5C 70.584,337.335 75.2507,326.668 81,316.5C 84.248,311.629 88.748,308.963 94.5,308.5 Z"/></g>
<g><path style="opacity:1" fill="#e3e3e3" d="M 419.5,369.5 C 418.043,374.539 416.376,379.539 414.5,384.5C 414.815,386.483 415.815,387.816 417.5,388.5C 415.193,389.763 413.859,391.763 413.5,394.5C 410.677,393.783 408.01,392.783 405.5,391.5C 405.5,390.5 405.5,389.5 405.5,388.5C 403.5,388.5 401.5,388.5 399.5,388.5C 399.666,394.176 399.499,399.843 399,405.5C 394.878,399.709 390.378,394.209 385.5,389C 383.866,388.506 382.199,388.34 380.5,388.5C 380.5,391.5 380.5,394.5 380.5,397.5C 378.2,399.202 375.533,399.868 372.5,399.5C 368.297,388.068 360.63,384.901 349.5,390C 346.031,392.29 344.031,395.456 343.5,399.5C 341.544,401.148 339.211,401.815 336.5,401.5C 336.768,399.901 336.434,398.568 335.5,397.5C 335.5,394.5 335.5,391.5 335.5,388.5C 333.833,388.5 332.167,388.5 330.5,388.5C 330.5,397.833 330.5,407.167 330.5,416.5C 332.167,416.5 333.833,416.5 335.5,416.5C 337.019,417.41 338.685,418.243 340.5,419C 362.492,420.111 384.492,420.444 406.5,420C 409.747,418.208 413.081,416.708 416.5,415.5C 417.833,415.833 419.167,416.167 420.5,416.5C 419.638,420.286 417.304,422.786 413.5,424C 405.899,425.328 398.232,426.162 390.5,426.5C 374.856,424.615 359.189,424.115 343.5,425C 332.498,423.333 321.665,421.166 311,418.5C 299.366,421.459 287.533,423.459 275.5,424.5C 264.174,423.034 252.84,421.701 241.5,420.5C 237.833,420.667 234.167,420.833 230.5,421C 225.102,423.433 219.435,424.766 213.5,425C 178.526,427.975 143.526,428.309 108.5,426C 95.08,424.436 81.7466,422.436 68.5,420C 67.3333,418.833 66.1667,417.667 65,416.5C 62.096,408.719 63.9293,402.386 70.5,397.5C 70.0081,412.932 77.3414,418.932 92.5,415.5C 96.6286,417.488 100.962,418.988 105.5,420C 127.795,422.018 150.129,422.685 172.5,422C 186.887,420.686 201.22,419.019 215.5,417C 218.962,414.761 220.295,411.594 219.5,407.5C 219.5,401.167 219.5,394.833 219.5,388.5C 217.5,388.5 215.5,388.5 213.5,388.5C 213.666,395.175 213.5,401.842 213,408.5C 209.287,412.487 205.62,412.487 202,408.5C 201.5,401.842 201.334,395.175 201.5,388.5C 199.5,388.5 197.5,388.5 195.5,388.5C 195.5,391.167 195.5,393.833 195.5,396.5C 192.325,397.091 189.991,396.091 188.5,393.5C 184.577,387.662 179.244,385.995 172.5,388.5C 171.262,388.19 171.262,387.69 172.5,387C 178.774,382.029 185.774,378.362 193.5,376C 211.268,377.81 229.101,378.977 247,379.5C 253.606,377.7 260.106,375.7 266.5,373.5C 270.056,373.445 273.389,374.278 276.5,376C 281.5,379.667 286.5,383.333 291.5,387C 292.848,389.01 294.182,391.01 295.5,393C 295.293,394.95 294.293,396.116 292.5,396.5C 291.702,394.114 290.702,391.78 289.5,389.5C 287.167,388.167 284.833,388.167 282.5,389.5C 278.369,398.227 275.036,407.227 272.5,416.5C 276.388,417.011 278.721,415.345 279.5,411.5C 283.833,410.167 288.167,410.167 292.5,411.5C 292.886,415.85 295.219,417.517 299.5,416.5C 299.5,415.5 299.5,414.5 299.5,413.5C 302.197,411.751 305.03,410.084 308,408.5C 308.183,411.365 308.683,414.031 309.5,416.5C 311.5,416.5 313.5,416.5 315.5,416.5C 315.5,408.833 315.5,401.167 315.5,393.5C 318.167,393.5 320.833,393.5 323.5,393.5C 323.5,391.833 323.5,390.167 323.5,388.5C 321.369,387.686 319.036,387.186 316.5,387C 323.444,381.112 331.277,376.945 340,374.5C 345.051,375.244 350.051,376.244 355,377.5C 360.656,376.935 364.822,374.268 367.5,369.5C 370.385,369.806 373.052,369.473 375.5,368.5C 376.495,357.012 376.828,345.345 376.5,333.5C 382.205,333.692 385.705,336.692 387,342.5C 388.454,349.228 390.121,355.895 392,362.5C 393.785,367.288 397.118,370.288 402,371.5C 407.609,369.679 413.442,369.012 419.5,369.5 Z"/></g>
<g><path style="opacity:1" fill="#123444" d="M 104.5,392.5 C 106.389,391.396 108.055,390.063 109.5,388.5C 117.455,385.805 123.955,387.805 129,394.5C 133.386,410.107 127.553,417.274 111.5,416C 101.799,410.394 99.4653,402.56 104.5,392.5 Z"/></g>
<g><path style="opacity:1" fill="#173646" d="M 323.5,388.5 C 323.5,390.167 323.5,391.833 323.5,393.5C 320.833,393.5 318.167,393.5 315.5,393.5C 315.5,401.167 315.5,408.833 315.5,416.5C 313.5,416.5 311.5,416.5 309.5,416.5C 309.5,408.833 309.5,401.167 309.5,393.5C 306.5,393.5 303.5,393.5 300.5,393.5C 300.5,391.833 300.5,390.167 300.5,388.5C 308.167,388.5 315.833,388.5 323.5,388.5 Z"/></g>
<g><path style="opacity:1" fill="#143545" d="M 96.5,392.5 C 94.8213,396.69 92.488,397.19 89.5,394C 81.8818,391.633 77.2152,394.3 75.5,402C 76.4063,409.249 80.4063,412.249 87.5,411C 89.8595,409.642 92.1928,408.642 94.5,408C 95.5742,408.739 96.2409,409.739 96.5,411C 95.3955,412.715 94.0622,414.215 92.5,415.5C 77.3414,418.932 70.0081,412.932 70.5,397.5C 77.2888,386.262 85.9554,384.596 96.5,392.5 Z"/></g>
<g><path style="opacity:1" fill="#dbdbdb" d="M 405.5,391.5 C 408.01,392.783 410.677,393.783 413.5,394.5C 412.959,397.652 413.959,400.152 416.5,402C 419.717,403.637 423.05,404.97 426.5,406C 428.036,409.417 426.869,411.25 423,411.5C 420.851,411.342 419.017,410.508 417.5,409C 415.359,408.116 413.693,408.616 412.5,410.5C 413.16,412.815 414.493,414.481 416.5,415.5C 413.081,416.708 409.747,418.208 406.5,420C 384.492,420.444 362.492,420.111 340.5,419C 338.685,418.243 337.019,417.41 335.5,416.5C 335.5,410.167 335.5,403.833 335.5,397.5C 336.434,398.568 336.768,399.901 336.5,401.5C 339.211,401.815 341.544,401.148 343.5,399.5C 343.464,412.296 349.797,417.796 362.5,416C 369.794,412.915 373.127,407.415 372.5,399.5C 375.533,399.868 378.2,399.202 380.5,397.5C 380.5,403.833 380.5,410.167 380.5,416.5C 382.167,416.5 383.833,416.5 385.5,416.5C 386.167,410.833 386.833,405.167 387.5,399.5C 391.238,405.412 395.571,410.912 400.5,416C 402.134,416.494 403.801,416.66 405.5,416.5C 405.5,408.167 405.5,399.833 405.5,391.5 Z"/></g>
<g><path style="opacity:1" fill="#143445" d="M 430.5,389.5 C 430.932,390.71 431.599,391.71 432.5,392.5C 432.116,394.293 430.95,395.293 429,395.5C 426.114,393.775 422.948,393.108 419.5,393.5C 419.286,395.144 419.62,396.644 420.5,398C 424.795,398.898 428.628,400.731 432,403.5C 433.818,406.416 433.984,409.416 432.5,412.5C 430.628,414.604 428.295,415.937 425.5,416.5C 423.833,416.5 422.167,416.5 420.5,416.5C 419.167,416.167 417.833,415.833 416.5,415.5C 414.493,414.481 413.16,412.815 412.5,410.5C 413.693,408.616 415.359,408.116 417.5,409C 419.017,410.508 420.851,411.342 423,411.5C 426.869,411.25 428.036,409.417 426.5,406C 423.05,404.97 419.717,403.637 416.5,402C 413.959,400.152 412.959,397.652 413.5,394.5C 413.859,391.763 415.193,389.763 417.5,388.5C 421.936,387.182 426.269,387.515 430.5,389.5 Z"/></g>
<g><path style="opacity:1" fill="#123344" d="M 372.5,399.5 C 373.127,407.415 369.794,412.915 362.5,416C 349.797,417.796 343.464,412.296 343.5,399.5C 344.031,395.456 346.031,392.29 349.5,390C 360.63,384.901 368.297,388.068 372.5,399.5 Z"/></g>
<g><path style="opacity:1" fill="#d9dada" d="M 353.5,393.5 C 363.105,391.939 367.271,395.939 366,405.5C 362.086,412.096 357.086,413.096 351,408.5C 347.507,402.805 348.34,397.805 353.5,393.5 Z"/></g>
<g><path style="opacity:1" fill="#102d3b" d="M 335.5,397.5 C 335.5,403.833 335.5,410.167 335.5,416.5C 333.833,416.5 332.167,416.5 330.5,416.5C 330.5,407.167 330.5,397.833 330.5,388.5C 332.167,388.5 333.833,388.5 335.5,388.5C 335.5,391.5 335.5,394.5 335.5,397.5 Z"/></g>
<g><path style="opacity:1" fill="#dadbdb" d="M 97.5,302.5 C 96.4861,304.574 95.4861,306.574 94.5,308.5C 88.748,308.963 84.248,311.629 81,316.5C 75.2507,326.668 70.584,337.335 67,348.5C 65.35,353.395 64.6833,358.395 65,363.5C 65.4406,368.573 67.9406,372.073 72.5,374C 82.793,373.182 93.1263,372.849 103.5,373C 108.167,374.333 112.833,375.667 117.5,377C 131.167,378.669 144.667,381.169 158,384.5C 161.523,384.163 165.023,383.663 168.5,383C 176.118,379.464 183.785,376.131 191.5,373C 208.798,374.393 226.131,374.893 243.5,374.5C 246.167,374.333 248.833,374.167 251.5,374C 257.918,369.785 264.918,368.452 272.5,370C 279.167,374 285.833,378 292.5,382C 300.151,385.27 307.818,385.27 315.5,382C 323.312,376.261 331.979,372.428 341.5,370.5C 345.595,371.619 349.762,372.286 354,372.5C 358.423,371.385 362.923,370.385 367.5,369.5C 364.822,374.268 360.656,376.935 355,377.5C 350.051,376.244 345.051,375.244 340,374.5C 331.277,376.945 323.444,381.112 316.5,387C 319.036,387.186 321.369,387.686 323.5,388.5C 315.833,388.5 308.167,388.5 300.5,388.5C 300.5,390.167 300.5,391.833 300.5,393.5C 303.5,393.5 306.5,393.5 309.5,393.5C 309.5,401.167 309.5,408.833 309.5,416.5C 308.683,414.031 308.183,411.365 308,408.5C 305.03,410.084 302.197,411.751 299.5,413.5C 296.721,408.097 294.388,402.43 292.5,396.5C 294.293,396.116 295.293,394.95 295.5,393C 294.182,391.01 292.848,389.01 291.5,387C 286.5,383.333 281.5,379.667 276.5,376C 273.389,374.278 270.056,373.445 266.5,373.5C 260.106,375.7 253.606,377.7 247,379.5C 229.101,378.977 211.268,377.81 193.5,376C 185.774,378.362 178.774,382.029 172.5,387C 171.262,387.69 171.262,388.19 172.5,388.5C 167.248,393.006 167.248,397.506 172.5,402C 175.717,403.637 179.05,404.97 182.5,406C 183.911,409.282 182.745,411.116 179,411.5C 176.077,411.205 173.743,409.871 172,407.5C 169.259,408.222 168.259,409.888 169,412.5C 173.967,416.682 179.467,417.516 185.5,415C 190.313,410.959 190.646,406.625 186.5,402C 183.283,400.363 179.95,399.03 176.5,398C 173.672,395.149 174.338,393.649 178.5,393.5C 180.611,393.486 182.445,394.152 184,395.5C 185.728,395.101 187.228,394.434 188.5,393.5C 189.991,396.091 192.325,397.091 195.5,396.5C 195.25,401.58 195.75,406.58 197,411.5C 201.916,416.72 207.75,417.887 214.5,415C 217.28,413.087 218.947,410.587 219.5,407.5C 220.295,411.594 218.962,414.761 215.5,417C 201.22,419.019 186.887,420.686 172.5,422C 150.129,422.685 127.795,422.018 105.5,420C 100.962,418.988 96.6286,417.488 92.5,415.5C 94.0622,414.215 95.3955,412.715 96.5,411C 96.2409,409.739 95.5742,408.739 94.5,408C 92.1928,408.642 89.8595,409.642 87.5,411C 80.4063,412.249 76.4063,409.249 75.5,402C 77.2152,394.3 81.8818,391.633 89.5,394C 92.488,397.19 94.8213,396.69 96.5,392.5C 97.1515,393.091 97.8182,393.757 98.5,394.5C 100.45,393.628 102.45,392.961 104.5,392.5C 99.4653,402.56 101.799,410.394 111.5,416C 127.553,417.274 133.386,410.107 129,394.5C 123.955,387.805 117.455,385.805 109.5,388.5C 109.607,386.097 108.607,384.264 106.5,383C 101.601,379.775 96.2678,378.775 90.5,380C 71.7235,390.275 61.0568,384.608 58.5,363C 61.9488,345.988 67.7822,329.821 76,314.5C 80.9079,306.42 88.0745,302.42 97.5,302.5 Z"/></g>
<g><path style="opacity:1" fill="#153546" d="M 292.5,396.5 C 294.388,402.43 296.721,408.097 299.5,413.5C 299.5,414.5 299.5,415.5 299.5,416.5C 295.219,417.517 292.886,415.85 292.5,411.5C 288.167,410.167 283.833,410.167 279.5,411.5C 278.721,415.345 276.388,417.011 272.5,416.5C 275.036,407.227 278.369,398.227 282.5,389.5C 284.833,388.167 287.167,388.167 289.5,389.5C 290.702,391.78 291.702,394.114 292.5,396.5 Z"/></g>
<g><path style="opacity:1" fill="#80898c" d="M 141.5,388.5 C 140.167,388.5 138.833,388.5 137.5,388.5C 137.5,397.833 137.5,407.167 137.5,416.5C 136.506,407.014 136.173,397.348 136.5,387.5C 138.415,387.216 140.081,387.549 141.5,388.5 Z"/></g>
<g><path style="opacity:1" fill="#d2d3d4" d="M 285.5,394.5 C 287.058,397.292 288.391,400.292 289.5,403.5C 287.257,404.474 284.924,404.808 282.5,404.5C 283.099,401.037 284.099,397.704 285.5,394.5 Z"/></g>
<g><path style="opacity:1" fill="#d7d7d7" d="M 112.5,393.5 C 122.158,391.993 126.325,395.993 125,405.5C 122.647,410.426 118.814,412.26 113.5,411C 105.844,405.569 105.511,399.736 112.5,393.5 Z"/></g>
<g><path style="opacity:1" fill="#143344" d="M 247.5,388.5 C 255.167,388.5 262.833,388.5 270.5,388.5C 270.5,390.167 270.5,391.833 270.5,393.5C 267.833,393.5 265.167,393.5 262.5,393.5C 262.5,401.167 262.5,408.833 262.5,416.5C 260.5,416.5 258.5,416.5 256.5,416.5C 256.5,408.833 256.5,401.167 256.5,393.5C 253.5,393.5 250.5,393.5 247.5,393.5C 247.5,391.833 247.5,390.167 247.5,388.5 Z"/></g>
<g><path style="opacity:1" fill="#133444" d="M 227.5,388.5 C 229.5,388.5 231.5,388.5 233.5,388.5C 233.5,395.833 233.5,403.167 233.5,410.5C 237.5,410.5 241.5,410.5 245.5,410.5C 245.5,412.5 245.5,414.5 245.5,416.5C 239.5,416.5 233.5,416.5 227.5,416.5C 227.5,407.167 227.5,397.833 227.5,388.5 Z"/></g>
<g><path style="opacity:1" fill="#0d3143" d="M 141.5,388.5 C 147.034,393.881 151.867,399.881 156,406.5C 156.499,400.509 156.666,394.509 156.5,388.5C 158.167,388.5 159.833,388.5 161.5,388.5C 161.5,397.833 161.5,407.167 161.5,416.5C 159.173,416.753 157.173,416.086 155.5,414.5C 151.333,408.833 147.167,403.167 143,397.5C 142.5,403.825 142.334,410.158 142.5,416.5C 140.833,416.5 139.167,416.5 137.5,416.5C 137.5,407.167 137.5,397.833 137.5,388.5C 138.833,388.5 140.167,388.5 141.5,388.5 Z"/></g>
<g><path style="opacity:1" fill="#123344" d="M 405.5,391.5 C 405.5,399.833 405.5,408.167 405.5,416.5C 403.801,416.66 402.134,416.494 400.5,416C 395.571,410.912 391.238,405.412 387.5,399.5C 387.44,398.957 387.107,398.624 386.5,398.5C 385.504,404.463 385.171,410.463 385.5,416.5C 383.833,416.5 382.167,416.5 380.5,416.5C 380.5,410.167 380.5,403.833 380.5,397.5C 380.5,394.5 380.5,391.5 380.5,388.5C 382.199,388.34 383.866,388.506 385.5,389C 390.378,394.209 394.878,399.709 399,405.5C 399.499,399.843 399.666,394.176 399.5,388.5C 401.5,388.5 403.5,388.5 405.5,388.5C 405.5,389.5 405.5,390.5 405.5,391.5 Z"/></g>
<g><path style="opacity:1" fill="#666f73" d="M 387.5,399.5 C 386.833,405.167 386.167,410.833 385.5,416.5C 385.171,410.463 385.504,404.463 386.5,398.5C 387.107,398.624 387.44,398.957 387.5,399.5 Z"/></g>
<g><path style="opacity:1" fill="#133243" d="M 219.5,407.5 C 218.947,410.587 217.28,413.087 214.5,415C 207.75,417.887 201.916,416.72 197,411.5C 195.75,406.58 195.25,401.58 195.5,396.5C 195.5,393.833 195.5,391.167 195.5,388.5C 197.5,388.5 199.5,388.5 201.5,388.5C 201.334,395.175 201.5,401.842 202,408.5C 205.62,412.487 209.287,412.487 213,408.5C 213.5,401.842 213.666,395.175 213.5,388.5C 215.5,388.5 217.5,388.5 219.5,388.5C 219.5,394.833 219.5,401.167 219.5,407.5 Z"/></g>
<g><path style="opacity:1" fill="#133444" d="M 188.5,393.5 C 187.228,394.434 185.728,395.101 184,395.5C 182.445,394.152 180.611,393.486 178.5,393.5C 174.338,393.649 173.672,395.149 176.5,398C 179.95,399.03 183.283,400.363 186.5,402C 190.646,406.625 190.313,410.959 185.5,415C 179.467,417.516 173.967,416.682 169,412.5C 168.259,409.888 169.259,408.222 172,407.5C 173.743,409.871 176.077,411.205 179,411.5C 182.745,411.116 183.911,409.282 182.5,406C 179.05,404.97 175.717,403.637 172.5,402C 167.248,397.506 167.248,393.006 172.5,388.5C 179.244,385.995 184.577,387.662 188.5,393.5 Z"/></g>
</svg>
